<?xml version="1.0" encoding="utf-8" standalone="no"?>
<!DOCTYPE svg PUBLIC "-//W3C//DTD SVG 1.1//EN" "http://www.w3.org/Graphics/SVG/1.1/DTD/svg11.dtd">
<svg version="1.1" xmlns="http://www.w3.org/2000/svg" xmlns:xlink="http://www.w3.org/1999/xlink" width="774pt" height="774pt" viewBox="0 0 774 774" xml:space="preserve" enable-background="new 0 0 774 774">
<g transform="scale(0.38709677,0.38709677)">
<g id="Nasjonalparker_Hex_Grønn">
<g transform="matrix(2.5833333 0 0 -2.5833333 1000 1000)">
<path d="M166.62089 227.97052 L168.01752 225.55148 L170.81078 225.55148 L172.20741 223.13245 L170.81078 220.71342 L172.20741 218.29439 L170.81078 215.87536 L168.01752 215.87536 L166.62089 213.45633 L168.01752 211.0373 L166.62089 208.61827 L168.01752 206.19924 L166.62089 203.78021 L163.82764 203.78021 L162.43101 201.36118 L163.82764 198.94215 L162.43101 196.52311 L159.63775 196.52311 L158.24112 198.94215 L155.44787 198.94215 L154.05124 201.36118 L151.25798 201.36118 L149.86136 203.78021 L147.0681 203.78021 L145.67147 206.19924 L142.87821 206.19924 L141.48159 208.61827 L138.68833 208.61827 L137.2917 211.0373 L138.68833 213.45633 L141.48159 213.45633 L142.87821 215.87536 L145.67147 215.87536 L147.0681 218.29439 L149.86136 218.29439 L151.25798 220.71342 L154.05124 220.71342 L155.44787 218.29439 L158.24112 218.29439 L159.63775 220.71342 L162.43101 220.71342 L163.82764 223.13245 L162.43101 225.55148 L163.82764 227.97052 L166.62089 227.97052 Z "  fill="#448970" fill-rule="evenodd" stroke="#E1E1E1" fill-opacity="1" stroke-opacity="1"  stroke-width="1" stroke-linecap="round" stroke-linejoin="round" stroke-miterlimit="10" />
</g>
<g transform="matrix(2.5833333 0 0 -2.5833333 1000 1000)">
<path d="M-33.096928 109.438 L-34.493556 107.01897 L-33.096928 104.59994 L-34.493556 102.18091 L-37.286812 102.18091 L-38.68344 99.76188 L-37.286812 97.342849 L-38.68344 94.923818 L-41.476697 94.923818 L-42.873325 92.504787 L-45.666581 92.504787 L-47.063209 90.085757 L-49.856465 90.085757 L-51.253093 92.504787 L-54.04635 92.504787 L-55.442978 94.923818 L-54.04635 97.342849 L-51.253093 97.342849 L-49.856465 99.76188 L-51.253093 102.18091 L-49.856465 104.59994 L-51.253093 107.01897 L-49.856465 109.438 L-47.063209 109.438 L-45.666581 111.85703 L-42.873325 111.85703 L-41.476697 109.438 L-38.68344 109.438 L-37.286812 111.85703 L-34.493556 111.85703 L-33.096928 109.438 Z "  fill="#448970" fill-rule="evenodd" stroke="#E1E1E1" fill-opacity="1" stroke-opacity="1"  stroke-width="1" stroke-linecap="round" stroke-linejoin="round" stroke-miterlimit="10" />
</g>
<g transform="matrix(2.5833333 0 0 -2.5833333 1000 1000)">
<path d="M-80.582284 99.76188 L-79.185656 97.342849 L-76.392399 97.342849 L-74.995771 94.923818 L-76.392399 92.504787 L-79.185656 92.504787 L-80.582284 90.085757 L-83.37554 90.085757 L-84.772168 92.504787 L-83.37554 94.923818 L-84.772168 97.342849 L-83.37554 99.76188 L-80.582284 99.76188 Z "  fill="#448970" fill-rule="evenodd" stroke="#E1E1E1" fill-opacity="1" stroke-opacity="1"  stroke-width="1" stroke-linecap="round" stroke-linejoin="round" stroke-miterlimit="10" />
</g>
<g transform="matrix(2.5833333 0 0 -2.5833333 1000 1000)">
<path d="M-109.91147 150.56153 L-112.70473 150.56153 L-114.10136 152.98056 L-112.70473 155.39959 L-114.10136 157.81862 L-112.70473 160.23765 L-109.91147 160.23765 L-108.51485 162.65668 L-109.91147 165.07571 L-108.51485 167.49474 L-105.72159 167.49474 L-104.32496 169.91377 L-101.53171 169.91377 L-100.13508 167.49474 L-101.53171 165.07571 L-104.32496 165.07571 L-105.72159 162.65668 L-104.32496 160.23765 L-105.72159 157.81862 L-104.32496 155.39959 L-105.72159 152.98056 L-108.51485 152.98056 L-109.91147 150.56153 Z "  fill="#448970" fill-rule="evenodd" stroke="#E1E1E1" fill-opacity="1" stroke-opacity="1"  stroke-width="1" stroke-linecap="round" stroke-linejoin="round" stroke-miterlimit="10" />
</g>
<g transform="matrix(2.5833333 0 0 -2.5833333 1000 1000)">
<path d="M-51.253093 198.94215 L-49.856465 196.52311 L-47.063209 196.52311 L-45.666581 194.10408 L-47.063209 191.68505 L-49.856465 191.68505 L-51.253093 189.26602 L-54.04635 189.26602 L-55.442978 191.68505 L-54.04635 194.10408 L-55.442978 196.52311 L-54.04635 198.94215 L-51.253093 198.94215 Z "  fill="#448970" fill-rule="evenodd" stroke="#E1E1E1" fill-opacity="1" stroke-opacity="1"  stroke-width="1" stroke-linecap="round" stroke-linejoin="round" stroke-miterlimit="10" />
</g>
<g transform="matrix(2.5833333 0 0 -2.5833333 1000 1000)">
<path d="M-37.286812 126.37122 L-38.68344 123.95219 L-41.476697 123.95219 L-42.873325 126.37122 L-45.666581 126.37122 L-47.063209 128.79025 L-45.666581 131.20928 L-42.873325 131.20928 L-41.476697 133.62831 L-38.68344 133.62831 L-37.286812 136.04734 L-34.493556 136.04734 L-33.096928 133.62831 L-34.493556 131.20928 L-37.286812 131.20928 L-38.68344 128.79025 L-37.286812 126.37122 Z "  fill="#448970" fill-rule="evenodd" stroke="#E1E1E1" fill-opacity="1" stroke-opacity="1"  stroke-width="1" stroke-linecap="round" stroke-linejoin="round" stroke-miterlimit="10" />
</g>
<g transform="matrix(2.5833333 0 0 -2.5833333 1000 1000)">
<path d="M87.01309 249.74179 L88.409718 247.32276 L91.202974 247.32276 L92.599603 244.90373 L95.392859 244.90373 L96.789487 242.4847 L99.582743 242.4847 L100.97937 240.06567 L103.77263 240.06567 L105.16926 237.64664 L103.77263 235.22761 L105.16926 232.80858 L103.77263 230.38955 L100.97937 230.38955 L99.582743 227.97052 L96.789487 227.97052 L95.392859 225.55148 L92.599603 225.55148 L91.202974 227.97052 L92.599603 230.38955 L91.202974 232.80858 L88.409718 232.80858 L87.01309 235.22761 L88.409718 237.64664 L87.01309 240.06567 L84.219834 240.06567 L82.823206 242.4847 L84.219834 244.90373 L82.823206 247.32276 L84.219834 249.74179 L87.01309 249.74179 Z "  fill="#448970" fill-rule="evenodd" stroke="#E1E1E1" fill-opacity="1" stroke-opacity="1"  stroke-width="1" stroke-linecap="round" stroke-linejoin="round" stroke-miterlimit="10" />
</g>
<g transform="matrix(2.5833333 0 0 -2.5833333 1000 1000)">
<path d="M15.785056 203.78021 L17.181684 201.36118 L19.974941 201.36118 L21.371569 198.94215 L24.164825 198.94215 L25.561453 201.36118 L28.354709 201.36118 L29.751337 198.94215 L32.544594 198.94215 L33.941222 196.52311 L36.734478 196.52311 L38.131106 194.10408 L40.924362 194.10408 L42.32099 191.68505 L45.114247 191.68505 L46.510875 189.26602 L45.114247 186.84699 L42.32099 186.84699 L40.924362 184.42796 L38.131106 184.42796 L36.734478 186.84699 L33.941222 186.84699 L32.544594 189.26602 L29.751337 189.26602 L28.354709 191.68505 L25.561453 191.68505 L24.164825 194.10408 L21.371569 194.10408 L19.974941 191.68505 L17.181684 191.68505 L15.785056 194.10408 L12.9918 194.10408 L11.595172 196.52311 L12.9918 198.94215 L11.595172 201.36118 L12.9918 203.78021 L15.785056 203.78021 Z "  fill="#448970" fill-rule="evenodd" stroke="#E1E1E1" fill-opacity="1" stroke-opacity="1"  stroke-width="1" stroke-linecap="round" stroke-linejoin="round" stroke-miterlimit="10" />
</g>
<g transform="matrix(2.5833333 0 0 -2.5833333 1000 1000)">
<path d="M-59.632862 102.18091 L-58.236234 99.76188 L-55.442978 99.76188 L-54.04635 97.342849 L-55.442978 94.923818 L-54.04635 92.504787 L-55.442978 90.085757 L-54.04635 87.666726 L-55.442978 85.247695 L-54.04635 82.828664 L-55.442978 80.409633 L-58.236234 80.409633 L-59.632862 77.990602 L-62.426118 77.990602 L-63.822746 75.571571 L-66.616003 75.571571 L-68.012631 73.152541 L-70.805887 73.152541 L-72.202515 70.73351 L-74.995771 70.73351 L-76.392399 73.152541 L-79.185656 73.152541 L-80.582284 75.571571 L-83.37554 75.571571 L-84.772168 73.152541 L-87.565424 73.152541 L-88.962053 75.571571 L-91.755309 75.571571 L-93.151937 77.990602 L-91.755309 80.409633 L-93.151937 82.828664 L-91.755309 85.247695 L-88.962053 85.247695 L-87.565424 87.666726 L-84.772168 87.666726 L-83.37554 85.247695 L-80.582284 85.247695 L-79.185656 87.666726 L-76.392399 87.666726 L-74.995771 90.085757 L-72.202515 90.085757 L-70.805887 92.504787 L-68.012631 92.504787 L-66.616003 94.923818 L-68.012631 97.342849 L-66.616003 99.76188 L-63.822746 99.76188 L-62.426118 102.18091 L-59.632862 102.18091 Z "  fill="#448970" fill-rule="evenodd" stroke="#E1E1E1" fill-opacity="1" stroke-opacity="1"  stroke-width="1" stroke-linecap="round" stroke-linejoin="round" stroke-miterlimit="10" />
</g>
<g transform="matrix(2.5833333 0 0 -2.5833333 1000 1000)">
<path d="M130.30856 319.89369 L128.91193 317.47466 L130.30856 315.05563 L128.91193 312.6366 L126.11868 312.6366 L124.72205 310.21756 L126.11868 307.79853 L124.72205 305.3795 L121.92879 305.3795 L120.53216 307.79853 L117.73891 307.79853 L116.34228 310.21756 L113.54902 310.21756 L112.1524 312.6366 L113.54902 315.05563 L112.1524 317.47466 L113.54902 319.89369 L116.34228 319.89369 L117.73891 322.31272 L120.53216 322.31272 L121.92879 319.89369 L124.72205 319.89369 L126.11868 322.31272 L128.91193 322.31272 L130.30856 319.89369 Z "  fill="#448970" fill-rule="evenodd" stroke="#E1E1E1" fill-opacity="1" stroke-opacity="1"  stroke-width="1" stroke-linecap="round" stroke-linejoin="round" stroke-miterlimit="10" />
</g>
<g transform="matrix(2.5833333 0 0 -2.5833333 1000 1000)">
<path d="M-59.632862 136.04734 L-58.236234 133.62831 L-55.442978 133.62831 L-54.04635 131.20928 L-51.253093 131.20928 L-49.856465 128.79025 L-51.253093 126.37122 L-54.04635 126.37122 L-55.442978 123.95219 L-58.236234 123.95219 L-59.632862 121.53316 L-62.426118 121.53316 L-63.822746 123.95219 L-66.616003 123.95219 L-68.012631 121.53316 L-70.805887 121.53316 L-72.202515 123.95219 L-70.805887 126.37122 L-68.012631 126.37122 L-66.616003 128.79025 L-68.012631 131.20928 L-66.616003 133.62831 L-63.822746 133.62831 L-62.426118 136.04734 L-59.632862 136.04734 Z "  fill="#448970" fill-rule="evenodd" stroke="#E1E1E1" fill-opacity="1" stroke-opacity="1"  stroke-width="1" stroke-linecap="round" stroke-linejoin="round" stroke-miterlimit="10" />
</g>
<g transform="matrix(2.5833333 0 0 -2.5833333 1000 1000)">
<path d="M159.63775 298.12241 L158.24112 295.70338 L155.44787 295.70338 L154.05124 293.28435 L155.44787 290.86532 L158.24112 290.86532 L159.63775 288.44629 L158.24112 286.02726 L159.63775 283.60823 L158.24112 281.18919 L155.44787 281.18919 L154.05124 278.77016 L151.25798 278.77016 L149.86136 276.35113 L147.0681 276.35113 L145.67147 278.77016 L142.87821 278.77016 L141.48159 281.18919 L142.87821 283.60823 L141.48159 286.02726 L142.87821 288.44629 L141.48159 290.86532 L142.87821 293.28435 L141.48159 295.70338 L142.87821 298.12241 L145.67147 298.12241 L147.0681 300.54144 L149.86136 300.54144 L151.25798 298.12241 L154.05124 298.12241 L155.44787 300.54144 L158.24112 300.54144 L159.63775 298.12241 Z "  fill="#448970" fill-rule="evenodd" stroke="#E1E1E1" fill-opacity="1" stroke-opacity="1"  stroke-width="1" stroke-linecap="round" stroke-linejoin="round" stroke-miterlimit="10" />
</g>
<g transform="matrix(2.5833333 0 0 -2.5833333 1000 1000)">
<path d="M267.17812 324.73175 L268.57475 322.31272 L271.368 322.31272 L272.76463 319.89369 L275.55789 319.89369 L276.95451 322.31272 L279.74777 322.31272 L281.1444 319.89369 L283.93765 319.89369 L285.33428 317.47466 L288.12754 317.47466 L289.52417 315.05563 L288.12754 312.6366 L289.52417 310.21756 L292.31742 310.21756 L293.71405 307.79853 L292.31742 305.3795 L289.52417 305.3795 L288.12754 302.96047 L285.33428 302.96047 L283.93765 305.3795 L281.1444 305.3795 L279.74777 302.96047 L281.1444 300.54144 L279.74777 298.12241 L276.95451 298.12241 L275.55789 300.54144 L272.76463 300.54144 L271.368 298.12241 L268.57475 298.12241 L267.17812 295.70338 L264.38486 295.70338 L262.98823 298.12241 L260.19498 298.12241 L258.79835 300.54144 L260.19498 302.96047 L258.79835 305.3795 L256.00509 305.3795 L254.60846 302.96047 L256.00509 300.54144 L254.60846 298.12241 L251.81521 298.12241 L250.41858 300.54144 L251.81521 302.96047 L250.41858 305.3795 L251.81521 307.79853 L254.60846 307.79853 L256.00509 310.21756 L254.60846 312.6366 L256.00509 315.05563 L254.60846 317.47466 L256.00509 319.89369 L258.79835 319.89369 L260.19498 322.31272 L262.98823 322.31272 L264.38486 324.73175 L267.17812 324.73175 Z "  fill="#448970" fill-rule="evenodd" stroke="#E1E1E1" fill-opacity="1" stroke-opacity="1"  stroke-width="1" stroke-linecap="round" stroke-linejoin="round" stroke-miterlimit="10" />
</g>
<g transform="matrix(2.5833333 0 0 -2.5833333 1000 1000)">
<path d="M53.494015 215.87536 L54.890643 213.45633 L57.6839 213.45633 L59.080528 211.0373 L57.6839 208.61827 L59.080528 206.19924 L57.6839 203.78021 L54.890643 203.78021 L53.494015 201.36118 L54.890643 198.94215 L53.494015 196.52311 L50.700759 196.52311 L49.304131 198.94215 L46.510875 198.94215 L45.114247 196.52311 L42.32099 196.52311 L40.924362 198.94215 L38.131106 198.94215 L36.734478 201.36118 L33.941222 201.36118 L32.544594 203.78021 L33.941222 206.19924 L32.544594 208.61827 L33.941222 211.0373 L36.734478 211.0373 L38.131106 208.61827 L40.924362 208.61827 L42.32099 211.0373 L45.114247 211.0373 L46.510875 213.45633 L49.304131 213.45633 L50.700759 215.87536 L53.494015 215.87536 Z "  fill="#448970" fill-rule="evenodd" stroke="#E1E1E1" fill-opacity="1" stroke-opacity="1"  stroke-width="1" stroke-linecap="round" stroke-linejoin="round" stroke-miterlimit="10" />
</g>
<g transform="matrix(2.5833333 0 0 -2.5833333 1000 1000)">
<path d="M250.41858 232.80858 L251.81521 230.38955 L254.60846 230.38955 L256.00509 227.97052 L254.60846 225.55148 L251.81521 225.55148 L250.41858 223.13245 L247.62532 223.13245 L246.2287 225.55148 L247.62532 227.97052 L246.2287 230.38955 L247.62532 232.80858 L246.2287 235.22761 L247.62532 237.64664 L250.41858 237.64664 L251.81521 235.22761 L250.41858 232.80858 Z "  fill="#448970" fill-rule="evenodd" stroke="#E1E1E1" fill-opacity="1" stroke-opacity="1"  stroke-width="1" stroke-linecap="round" stroke-linejoin="round" stroke-miterlimit="10" />
</g>
<g transform="matrix(2.5833333 0 0 -2.5833333 1000 1000)">
<path d="M-13.544134 230.38955 L-16.33739 230.38955 L-17.734019 232.80858 L-16.33739 235.22761 L-17.734019 237.64664 L-16.33739 240.06567 L-13.544134 240.06567 L-12.147506 242.4847 L-9.3542499 242.4847 L-7.9576218 240.06567 L-9.3542499 237.64664 L-7.9576218 235.22761 L-9.3542499 232.80858 L-12.147506 232.80858 L-13.544134 230.38955 Z "  fill="#448970" fill-rule="evenodd" stroke="#E1E1E1" fill-opacity="1" stroke-opacity="1"  stroke-width="1" stroke-linecap="round" stroke-linejoin="round" stroke-miterlimit="10" />
</g>
<g transform="matrix(2.5833333 0 0 -2.5833333 1000 1000)">
<path d="M-101.53171 -33.284817 L-100.13508 -35.703848 L-97.341821 -35.703848 L-95.945193 -38.122879 L-97.341821 -40.54191 L-95.945193 -42.96094 L-97.341821 -45.379971 L-95.945193 -47.799002 L-93.151937 -47.799002 L-91.755309 -50.218033 L-93.151937 -52.637064 L-91.755309 -55.056095 L-93.151937 -57.475126 L-95.945193 -57.475126 L-97.341821 -55.056095 L-100.13508 -55.056095 L-101.53171 -52.637064 L-104.32496 -52.637064 L-105.72159 -55.056095 L-108.51485 -55.056095 L-109.91147 -57.475126 L-112.70473 -57.475126 L-114.10136 -59.894156 L-112.70473 -62.313187 L-114.10136 -64.732218 L-116.89461 -64.732218 L-118.29124 -67.151249 L-121.0845 -67.151249 L-122.48113 -64.732218 L-125.27438 -64.732218 L-126.67101 -62.313187 L-125.27438 -59.894156 L-122.48113 -59.894156 L-121.0845 -57.475126 L-122.48113 -55.056095 L-121.0845 -52.637064 L-118.29124 -52.637064 L-116.89461 -50.218033 L-114.10136 -50.218033 L-112.70473 -52.637064 L-109.91147 -52.637064 L-108.51485 -50.218033 L-109.91147 -47.799002 L-112.70473 -47.799002 L-114.10136 -45.379971 L-112.70473 -42.96094 L-109.91147 -42.96094 L-108.51485 -40.54191 L-109.91147 -38.122879 L-112.70473 -38.122879 L-114.10136 -40.54191 L-116.89461 -40.54191 L-118.29124 -38.122879 L-116.89461 -35.703848 L-114.10136 -35.703848 L-112.70473 -33.284817 L-109.91147 -33.284817 L-108.51485 -35.703848 L-105.72159 -35.703848 L-104.32496 -33.284817 L-101.53171 -33.284817 Z "  fill="#448970" fill-rule="evenodd" stroke="#E1E1E1" fill-opacity="1" stroke-opacity="1"  stroke-width="1" stroke-linecap="round" stroke-linejoin="round" stroke-miterlimit="10" />
</g>
<g transform="matrix(2.5833333 0 0 -2.5833333 1000 1000)">
<path d="M-227.22824 -154.23636 L-225.83161 -156.65539 L-223.03835 -156.65539 L-221.64172 -159.07442 L-223.03835 -161.49345 L-221.64172 -163.91248 L-218.84847 -163.91248 L-217.45184 -161.49345 L-214.65858 -161.49345 L-213.26195 -163.91248 L-210.4687 -163.91248 L-209.07207 -166.33151 L-210.4687 -168.75055 L-213.26195 -168.75055 L-214.65858 -171.16958 L-217.45184 -171.16958 L-218.84847 -173.58861 L-221.64172 -173.58861 L-223.03835 -176.00764 L-225.83161 -176.00764 L-227.22824 -178.42667 L-230.02149 -178.42667 L-231.41812 -180.8457 L-234.21138 -180.8457 L-235.608 -178.42667 L-234.21138 -176.00764 L-235.608 -173.58861 L-234.21138 -171.16958 L-231.41812 -171.16958 L-230.02149 -168.75055 L-231.41812 -166.33151 L-234.21138 -166.33151 L-235.608 -163.91248 L-234.21138 -161.49345 L-235.608 -159.07442 L-234.21138 -156.65539 L-231.41812 -156.65539 L-230.02149 -154.23636 L-227.22824 -154.23636 Z "  fill="#448970" fill-rule="evenodd" stroke="#E1E1E1" fill-opacity="1" stroke-opacity="1"  stroke-width="1" stroke-linecap="round" stroke-linejoin="round" stroke-miterlimit="10" />
</g>
<g transform="matrix(2.5833333 0 0 -2.5833333 1000 1000)">
<path d="M-84.772168 15.0958 L-83.37554 12.676769 L-80.582284 12.676769 L-79.185656 10.257738 L-76.392399 10.257738 L-74.995771 7.8387075 L-76.392399 5.4196766 L-74.995771 3.0006458 L-76.392399 0.58161491 L-74.995771 -1.8374159 L-76.392399 -4.2564468 L-79.185656 -4.2564468 L-80.582284 -6.6754777 L-79.185656 -9.0945085 L-80.582284 -11.513539 L-83.37554 -11.513539 L-84.772168 -9.0945085 L-87.565424 -9.0945085 L-88.962053 -6.6754777 L-91.755309 -6.6754777 L-93.151937 -4.2564468 L-95.945193 -4.2564468 L-97.341821 -1.8374159 L-95.945193 0.58161491 L-97.341821 3.0006458 L-95.945193 5.4196766 L-97.341821 7.8387075 L-95.945193 10.257738 L-93.151937 10.257738 L-91.755309 12.676769 L-88.962053 12.676769 L-87.565424 15.0958 L-84.772168 15.0958 Z "  fill="#448970" fill-rule="evenodd" stroke="#E1E1E1" fill-opacity="1" stroke-opacity="1"  stroke-width="1" stroke-linecap="round" stroke-linejoin="round" stroke-miterlimit="10" />
</g>
<g transform="matrix(2.5833333 0 0 -2.5833333 1000 1000)">
<path d="M-189.51928 -156.65539 L-192.31253 -156.65539 L-193.70916 -154.23636 L-192.31253 -151.81733 L-189.51928 -151.81733 L-188.12265 -149.3983 L-185.32939 -149.3983 L-183.93276 -146.97927 L-181.13951 -146.97927 L-179.74288 -149.3983 L-181.13951 -151.81733 L-183.93276 -151.81733 L-185.32939 -154.23636 L-188.12265 -154.23636 L-189.51928 -156.65539 Z "  fill="#448970" fill-rule="evenodd" stroke="#E1E1E1" fill-opacity="1" stroke-opacity="1"  stroke-width="1" stroke-linecap="round" stroke-linejoin="round" stroke-miterlimit="10" />
</g>
<g transform="matrix(2.5833333 0 0 -2.5833333 1000 1000)">
<path d="M-202.08893 -125.20799 L-200.6923 -127.62702 L-197.89905 -127.62702 L-196.50242 -130.04605 L-197.89905 -132.46508 L-196.50242 -134.88411 L-193.70916 -134.88411 L-192.31253 -132.46508 L-189.51928 -132.46508 L-188.12265 -130.04605 L-185.32939 -130.04605 L-183.93276 -132.46508 L-185.32939 -134.88411 L-183.93276 -137.30314 L-181.13951 -137.30314 L-179.74288 -139.72217 L-181.13951 -142.14121 L-183.93276 -142.14121 L-185.32939 -144.56024 L-188.12265 -144.56024 L-189.51928 -146.97927 L-192.31253 -146.97927 L-193.70916 -149.3983 L-196.50242 -149.3983 L-197.89905 -146.97927 L-200.6923 -146.97927 L-202.08893 -144.56024 L-200.6923 -142.14121 L-202.08893 -139.72217 L-204.88219 -139.72217 L-206.27881 -137.30314 L-209.07207 -137.30314 L-210.4687 -134.88411 L-209.07207 -132.46508 L-210.4687 -130.04605 L-209.07207 -127.62702 L-206.27881 -127.62702 L-204.88219 -125.20799 L-202.08893 -125.20799 Z "  fill="#448970" fill-rule="evenodd" stroke="#E1E1E1" fill-opacity="1" stroke-opacity="1"  stroke-width="1" stroke-linecap="round" stroke-linejoin="round" stroke-miterlimit="10" />
</g>
<g transform="matrix(2.5833333 0 0 -2.5833333 1000 1000)">
<path d="M-126.67101 -134.88411 L-125.27438 -137.30314 L-122.48113 -137.30314 L-121.0845 -139.72217 L-122.48113 -142.14121 L-121.0845 -144.56024 L-122.48113 -146.97927 L-121.0845 -149.3983 L-122.48113 -151.81733 L-125.27438 -151.81733 L-126.67101 -154.23636 L-129.46427 -154.23636 L-130.8609 -151.81733 L-129.46427 -149.3983 L-130.8609 -146.97927 L-129.46427 -144.56024 L-130.8609 -142.14121 L-129.46427 -139.72217 L-130.8609 -137.30314 L-129.46427 -134.88411 L-130.8609 -132.46508 L-129.46427 -130.04605 L-126.67101 -130.04605 L-125.27438 -132.46508 L-126.67101 -134.88411 Z "  fill="#448970" fill-rule="evenodd" stroke="#E1E1E1" fill-opacity="1" stroke-opacity="1"  stroke-width="1" stroke-linecap="round" stroke-linejoin="round" stroke-miterlimit="10" />
</g>
<g transform="matrix(2.5833333 0 0 -2.5833333 1000 1000)">
<path d="M-250.97091 -253.41663 L-252.36754 -255.83566 L-255.1608 -255.83566 L-256.55743 -253.41663 L-259.35068 -253.41663 L-260.74731 -255.83566 L-263.54057 -255.83566 L-264.9372 -253.41663 L-263.54057 -250.99759 L-264.9372 -248.57856 L-263.54057 -246.15953 L-260.74731 -246.15953 L-259.35068 -243.7405 L-256.55743 -243.7405 L-255.1608 -241.32147 L-256.55743 -238.90244 L-255.1608 -236.48341 L-252.36754 -236.48341 L-250.97091 -238.90244 L-252.36754 -241.32147 L-250.97091 -243.7405 L-252.36754 -246.15953 L-250.97091 -248.57856 L-252.36754 -250.99759 L-250.97091 -253.41663 Z "  fill="#448970" fill-rule="evenodd" stroke="#E1E1E1" fill-opacity="1" stroke-opacity="1"  stroke-width="1" stroke-linecap="round" stroke-linejoin="round" stroke-miterlimit="10" />
</g>
<g transform="matrix(2.5833333 0 0 -2.5833333 1000 1000)">
<path d="M-151.81032 -120.36993 L-150.41369 -122.78896 L-147.62043 -122.78896 L-146.22381 -125.20799 L-147.62043 -127.62702 L-150.41369 -127.62702 L-151.81032 -125.20799 L-154.60357 -125.20799 L-156.0002 -127.62702 L-154.60357 -130.04605 L-151.81032 -130.04605 L-150.41369 -132.46508 L-151.81032 -134.88411 L-154.60357 -134.88411 L-156.0002 -132.46508 L-158.79346 -132.46508 L-160.19009 -134.88411 L-162.98334 -134.88411 L-164.37997 -132.46508 L-162.98334 -130.04605 L-164.37997 -127.62702 L-167.17323 -127.62702 L-168.56986 -125.20799 L-171.36311 -125.20799 L-172.75974 -122.78896 L-171.36311 -120.36993 L-172.75974 -117.9509 L-171.36311 -115.53187 L-168.56986 -115.53187 L-167.17323 -117.9509 L-164.37997 -117.9509 L-162.98334 -120.36993 L-160.19009 -120.36993 L-158.79346 -117.9509 L-156.0002 -117.9509 L-154.60357 -115.53187 L-151.81032 -115.53187 L-150.41369 -117.9509 L-151.81032 -120.36993 Z "  fill="#448970" fill-rule="evenodd" stroke="#E1E1E1" fill-opacity="1" stroke-opacity="1"  stroke-width="1" stroke-linecap="round" stroke-linejoin="round" stroke-miterlimit="10" />
</g>
<g transform="matrix(2.5833333 0 0 -2.5833333 1000 1000)">
<path d="M-114.10136 -180.8457 L-112.70473 -183.26473 L-109.91147 -183.26473 L-108.51485 -185.68376 L-109.91147 -188.10279 L-112.70473 -188.10279 L-114.10136 -185.68376 L-116.89461 -185.68376 L-118.29124 -183.26473 L-116.89461 -180.8457 L-118.29124 -178.42667 L-116.89461 -176.00764 L-114.10136 -176.00764 L-112.70473 -178.42667 L-114.10136 -180.8457 Z "  fill="#448970" fill-rule="evenodd" stroke="#E1E1E1" fill-opacity="1" stroke-opacity="1"  stroke-width="1" stroke-linecap="round" stroke-linejoin="round" stroke-miterlimit="10" />
</g>
<g transform="matrix(2.5833333 0 0 -2.5833333 1000 1000)">
<path d="M-164.37997 -292.12112 L-167.17323 -292.12112 L-168.56986 -289.70209 L-167.17323 -287.28306 L-168.56986 -284.86403 L-167.17323 -282.445 L-164.37997 -282.445 L-162.98334 -280.02596 L-160.19009 -280.02596 L-158.79346 -282.445 L-160.19009 -284.86403 L-162.98334 -284.86403 L-164.37997 -287.28306 L-162.98334 -289.70209 L-164.37997 -292.12112 Z "  fill="#448970" fill-rule="evenodd" stroke="#E1E1E1" fill-opacity="1" stroke-opacity="1"  stroke-width="1" stroke-linecap="round" stroke-linejoin="round" stroke-miterlimit="10" />
</g>
<g transform="matrix(2.5833333 0 0 -2.5833333 1000 1000)">
<path d="M-125.27438 -156.65539 L-126.67101 -159.07442 L-129.46427 -159.07442 L-130.8609 -156.65539 L-129.46427 -154.23636 L-126.67101 -154.23636 L-125.27438 -156.65539 Z "  fill="#448970" fill-rule="evenodd" stroke="#E1E1E1" fill-opacity="1" stroke-opacity="1"  stroke-width="1" stroke-linecap="round" stroke-linejoin="round" stroke-miterlimit="10" />
</g>
<g transform="matrix(2.5833333 0 0 -2.5833333 1000 1000)">
<path d="M-223.03835 -219.55019 L-221.64172 -221.96922 L-218.84847 -221.96922 L-217.45184 -224.38825 L-218.84847 -226.80729 L-221.64172 -226.80729 L-223.03835 -224.38825 L-225.83161 -224.38825 L-227.22824 -226.80729 L-230.02149 -226.80729 L-231.41812 -224.38825 L-234.21138 -224.38825 L-235.608 -221.96922 L-234.21138 -219.55019 L-231.41812 -219.55019 L-230.02149 -217.13116 L-227.22824 -217.13116 L-225.83161 -214.71213 L-223.03835 -214.71213 L-221.64172 -217.13116 L-223.03835 -219.55019 Z "  fill="#448970" fill-rule="evenodd" stroke="#E1E1E1" fill-opacity="1" stroke-opacity="1"  stroke-width="1" stroke-linecap="round" stroke-linejoin="round" stroke-miterlimit="10" />
</g>
<g transform="matrix(2.5833333 0 0 -2.5833333 1000 1000)">
<path d="M-218.84847 -231.64535 L-217.45184 -234.06438 L-214.65858 -234.06438 L-213.26195 -236.48341 L-214.65858 -238.90244 L-217.45184 -238.90244 L-218.84847 -241.32147 L-217.45184 -243.7405 L-218.84847 -246.15953 L-221.64172 -246.15953 L-223.03835 -248.57856 L-221.64172 -250.99759 L-223.03835 -253.41663 L-225.83161 -253.41663 L-227.22824 -255.83566 L-230.02149 -255.83566 L-231.41812 -253.41663 L-234.21138 -253.41663 L-235.608 -255.83566 L-238.40126 -255.83566 L-239.79789 -253.41663 L-242.59115 -253.41663 L-243.98777 -250.99759 L-246.78103 -250.99759 L-248.17766 -248.57856 L-246.78103 -246.15953 L-243.98777 -246.15953 L-242.59115 -243.7405 L-243.98777 -241.32147 L-246.78103 -241.32147 L-248.17766 -238.90244 L-246.78103 -236.48341 L-248.17766 -234.06438 L-246.78103 -231.64535 L-243.98777 -231.64535 L-242.59115 -234.06438 L-239.79789 -234.06438 L-238.40126 -231.64535 L-235.608 -231.64535 L-234.21138 -234.06438 L-231.41812 -234.06438 L-230.02149 -236.48341 L-227.22824 -236.48341 L-225.83161 -234.06438 L-223.03835 -234.06438 L-221.64172 -231.64535 L-218.84847 -231.64535 Z "  fill="#448970" fill-rule="evenodd" stroke="#E1E1E1" fill-opacity="1" stroke-opacity="1"  stroke-width="1" stroke-linecap="round" stroke-linejoin="round" stroke-miterlimit="10" />
</g>
<g transform="matrix(2.5833333 0 0 -2.5833333 1000 1000)">
<path d="M-185.32939 -304.21627 L-188.12265 -304.21627 L-189.51928 -301.79724 L-188.12265 -299.37821 L-185.32939 -299.37821 L-183.93276 -296.95918 L-181.13951 -296.95918 L-179.74288 -299.37821 L-181.13951 -301.79724 L-183.93276 -301.79724 L-185.32939 -304.21627 Z "  fill="#448970" fill-rule="evenodd" stroke="#E1E1E1" fill-opacity="1" stroke-opacity="1"  stroke-width="1" stroke-linecap="round" stroke-linejoin="round" stroke-miterlimit="10" />
</g>
<g transform="matrix(2.5833333 0 0 -2.5833333 1000 1000)">
<path d="M-242.59115 -185.68376 L-243.98777 -188.10279 L-246.78103 -188.10279 L-248.17766 -185.68376 L-250.97091 -185.68376 L-252.36754 -183.26473 L-250.97091 -180.8457 L-252.36754 -178.42667 L-250.97091 -176.00764 L-252.36754 -173.58861 L-250.97091 -171.16958 L-248.17766 -171.16958 L-246.78103 -168.75055 L-243.98777 -168.75055 L-242.59115 -166.33151 L-243.98777 -163.91248 L-242.59115 -161.49345 L-239.79789 -161.49345 L-238.40126 -159.07442 L-235.608 -159.07442 L-234.21138 -161.49345 L-235.608 -163.91248 L-234.21138 -166.33151 L-235.608 -168.75055 L-234.21138 -171.16958 L-235.608 -173.58861 L-238.40126 -173.58861 L-239.79789 -176.00764 L-238.40126 -178.42667 L-239.79789 -180.8457 L-242.59115 -180.8457 L-243.98777 -183.26473 L-242.59115 -185.68376 Z "  fill="#448970" fill-rule="evenodd" stroke="#E1E1E1" fill-opacity="1" stroke-opacity="1"  stroke-width="1" stroke-linecap="round" stroke-linejoin="round" stroke-miterlimit="10" />
</g>
<g transform="matrix(2.5833333 0 0 -2.5833333 1000 1000)">
<path d="M-200.6923 -176.00764 L-202.08893 -178.42667 L-200.6923 -180.8457 L-202.08893 -183.26473 L-204.88219 -183.26473 L-206.27881 -185.68376 L-209.07207 -185.68376 L-210.4687 -188.10279 L-213.26195 -188.10279 L-214.65858 -185.68376 L-217.45184 -185.68376 L-218.84847 -183.26473 L-221.64172 -183.26473 L-223.03835 -185.68376 L-225.83161 -185.68376 L-227.22824 -183.26473 L-225.83161 -180.8457 L-223.03835 -180.8457 L-221.64172 -178.42667 L-223.03835 -176.00764 L-221.64172 -173.58861 L-218.84847 -173.58861 L-217.45184 -176.00764 L-214.65858 -176.00764 L-213.26195 -173.58861 L-210.4687 -173.58861 L-209.07207 -171.16958 L-206.27881 -171.16958 L-204.88219 -168.75055 L-202.08893 -168.75055 L-200.6923 -171.16958 L-202.08893 -173.58861 L-200.6923 -176.00764 Z "  fill="#448970" fill-rule="evenodd" stroke="#E1E1E1" fill-opacity="1" stroke-opacity="1"  stroke-width="1" stroke-linecap="round" stroke-linejoin="round" stroke-miterlimit="10" />
</g>
<g transform="matrix(2.5833333 0 0 -2.5833333 1000 1000)">
<path d="M-185.32939 -188.10279 L-183.93276 -190.52182 L-181.13951 -190.52182 L-179.74288 -192.94085 L-176.94962 -192.94085 L-175.553 -195.35988 L-176.94962 -197.77892 L-179.74288 -197.77892 L-181.13951 -200.19795 L-183.93276 -200.19795 L-185.32939 -197.77892 L-188.12265 -197.77892 L-189.51928 -195.35988 L-188.12265 -192.94085 L-189.51928 -190.52182 L-192.31253 -190.52182 L-193.70916 -192.94085 L-196.50242 -192.94085 L-197.89905 -190.52182 L-196.50242 -188.10279 L-193.70916 -188.10279 L-192.31253 -185.68376 L-189.51928 -185.68376 L-188.12265 -183.26473 L-185.32939 -183.26473 L-183.93276 -185.68376 L-185.32939 -188.10279 Z "  fill="#448970" fill-rule="evenodd" stroke="#E1E1E1" fill-opacity="1" stroke-opacity="1"  stroke-width="1" stroke-linecap="round" stroke-linejoin="round" stroke-miterlimit="10" />
</g>
<g transform="matrix(2.5833333 0 0 -2.5833333 1000 1000)">
<path d="M-84.772168 -33.284817 L-83.37554 -35.703848 L-80.582284 -35.703848 L-79.185656 -38.122879 L-80.582284 -40.54191 L-79.185656 -42.96094 L-80.582284 -45.379971 L-79.185656 -47.799002 L-80.582284 -50.218033 L-83.37554 -50.218033 L-84.772168 -47.799002 L-87.565424 -47.799002 L-88.962053 -45.379971 L-87.565424 -42.96094 L-88.962053 -40.54191 L-91.755309 -40.54191 L-93.151937 -38.122879 L-91.755309 -35.703848 L-88.962053 -35.703848 L-87.565424 -33.284817 L-84.772168 -33.284817 Z "  fill="#448970" fill-rule="evenodd" stroke="#E1E1E1" fill-opacity="1" stroke-opacity="1"  stroke-width="1" stroke-linecap="round" stroke-linejoin="round" stroke-miterlimit="10" />
</g>
<g transform="matrix(2.5833333 0 0 -2.5833333 1000 1000)">
<path d="M-104.32496 29.609985 L-105.72159 27.190954 L-104.32496 24.771923 L-101.53171 24.771923 L-100.13508 22.352893 L-101.53171 19.933862 L-100.13508 17.514831 L-97.341821 17.514831 L-95.945193 15.0958 L-97.341821 12.676769 L-100.13508 12.676769 L-101.53171 10.257738 L-104.32496 10.257738 L-105.72159 12.676769 L-108.51485 12.676769 L-109.91147 10.257738 L-112.70473 10.257738 L-114.10136 12.676769 L-112.70473 15.0958 L-114.10136 17.514831 L-116.89461 17.514831 L-118.29124 19.933862 L-121.0845 19.933862 L-122.48113 22.352893 L-121.0845 24.771923 L-118.29124 24.771923 L-116.89461 27.190954 L-114.10136 27.190954 L-112.70473 24.771923 L-109.91147 24.771923 L-108.51485 27.190954 L-109.91147 29.609985 L-112.70473 29.609985 L-114.10136 32.029016 L-112.70473 34.448047 L-109.91147 34.448047 L-108.51485 36.867078 L-105.72159 36.867078 L-104.32496 34.448047 L-105.72159 32.029016 L-104.32496 29.609985 Z "  fill="#448970" fill-rule="evenodd" stroke="#E1E1E1" fill-opacity="1" stroke-opacity="1"  stroke-width="1" stroke-linecap="round" stroke-linejoin="round" stroke-miterlimit="10" />
</g>
<g transform="matrix(2.5833333 0 0 -2.5833333 1000 1000)">
<path d="M-202.08893 -323.56852 L-204.88219 -323.56852 L-206.27881 -321.14949 L-204.88219 -318.73046 L-202.08893 -318.73046 L-200.6923 -316.31143 L-202.08893 -313.8924 L-200.6923 -311.47337 L-197.89905 -311.47337 L-196.50242 -309.05433 L-193.70916 -309.05433 L-192.31253 -306.6353 L-189.51928 -306.6353 L-188.12265 -309.05433 L-189.51928 -311.47337 L-192.31253 -311.47337 L-193.70916 -313.8924 L-196.50242 -313.8924 L-197.89905 -316.31143 L-196.50242 -318.73046 L-197.89905 -321.14949 L-200.6923 -321.14949 L-202.08893 -323.56852 Z "  fill="#448970" fill-rule="evenodd" stroke="#E1E1E1" fill-opacity="1" stroke-opacity="1"  stroke-width="1" stroke-linecap="round" stroke-linejoin="round" stroke-miterlimit="10" />
</g>
<g transform="matrix(2.5833333 0 0 -2.5833333 1000 1000)">
<path d="M-223.03835 -137.30314 L-221.64172 -139.72217 L-218.84847 -139.72217 L-217.45184 -142.14121 L-218.84847 -144.56024 L-217.45184 -146.97927 L-214.65858 -146.97927 L-213.26195 -149.3983 L-210.4687 -149.3983 L-209.07207 -146.97927 L-206.27881 -146.97927 L-204.88219 -149.3983 L-206.27881 -151.81733 L-204.88219 -154.23636 L-202.08893 -154.23636 L-200.6923 -151.81733 L-197.89905 -151.81733 L-196.50242 -154.23636 L-197.89905 -156.65539 L-196.50242 -159.07442 L-197.89905 -161.49345 L-200.6923 -161.49345 L-202.08893 -159.07442 L-204.88219 -159.07442 L-206.27881 -161.49345 L-209.07207 -161.49345 L-210.4687 -159.07442 L-213.26195 -159.07442 L-214.65858 -156.65539 L-217.45184 -156.65539 L-218.84847 -159.07442 L-221.64172 -159.07442 L-223.03835 -156.65539 L-225.83161 -156.65539 L-227.22824 -154.23636 L-225.83161 -151.81733 L-227.22824 -149.3983 L-230.02149 -149.3983 L-231.41812 -146.97927 L-230.02149 -144.56024 L-231.41812 -142.14121 L-230.02149 -139.72217 L-227.22824 -139.72217 L-225.83161 -137.30314 L-227.22824 -134.88411 L-225.83161 -132.46508 L-223.03835 -132.46508 L-221.64172 -134.88411 L-223.03835 -137.30314 Z "  fill="#448970" fill-rule="evenodd" stroke="#E1E1E1" fill-opacity="1" stroke-opacity="1"  stroke-width="1" stroke-linecap="round" stroke-linejoin="round" stroke-miterlimit="10" />
</g>
<g transform="matrix(2.5833333 0 0 -2.5833333 1000 1000)">
<path d="M-176.94962 -159.07442 L-175.553 -161.49345 L-172.75974 -161.49345 L-171.36311 -163.91248 L-168.56986 -163.91248 L-167.17323 -166.33151 L-168.56986 -168.75055 L-171.36311 -168.75055 L-172.75974 -171.16958 L-175.553 -171.16958 L-176.94962 -168.75055 L-179.74288 -168.75055 L-181.13951 -166.33151 L-183.93276 -166.33151 L-185.32939 -163.91248 L-188.12265 -163.91248 L-189.51928 -161.49345 L-188.12265 -159.07442 L-185.32939 -159.07442 L-183.93276 -156.65539 L-181.13951 -156.65539 L-179.74288 -154.23636 L-176.94962 -154.23636 L-175.553 -156.65539 L-176.94962 -159.07442 Z "  fill="#448970" fill-rule="evenodd" stroke="#E1E1E1" fill-opacity="1" stroke-opacity="1"  stroke-width="1" stroke-linecap="round" stroke-linejoin="round" stroke-miterlimit="10" />
</g>
<g transform="matrix(2.5833333 0 0 -2.5833333 1000 1000)">
<path d="M-139.24066 -93.760588 L-137.84404 -96.179619 L-135.05078 -96.179619 L-133.65415 -98.59865 L-135.05078 -101.01768 L-137.84404 -101.01768 L-139.24066 -103.43671 L-142.03392 -103.43671 L-143.43055 -101.01768 L-142.03392 -98.59865 L-143.43055 -96.179619 L-146.22381 -96.179619 L-147.62043 -93.760588 L-146.22381 -91.341558 L-143.43055 -91.341558 L-142.03392 -88.922527 L-139.24066 -88.922527 L-137.84404 -91.341558 L-139.24066 -93.760588 Z "  fill="#448970" fill-rule="evenodd" stroke="#E1E1E1" fill-opacity="1" stroke-opacity="1"  stroke-width="1" stroke-linecap="round" stroke-linejoin="round" stroke-miterlimit="10" />
</g>
<g transform="matrix(2.5833333 0 0 -2.5833333 1000 1000)">
<path d="M-156.0002 -287.28306 L-154.60357 -289.70209 L-151.81032 -289.70209 L-150.41369 -292.12112 L-151.81032 -294.54015 L-154.60357 -294.54015 L-156.0002 -292.12112 L-158.79346 -292.12112 L-160.19009 -289.70209 L-158.79346 -287.28306 L-156.0002 -287.28306 Z "  fill="#448970" fill-rule="evenodd" stroke="#E1E1E1" fill-opacity="1" stroke-opacity="1"  stroke-width="1" stroke-linecap="round" stroke-linejoin="round" stroke-miterlimit="10" />
</g>
<g transform="matrix(2.5833333 0 0 -2.5833333 1000 1000)">
<path d="M-150.41369 -258.25469 L-151.81032 -260.67372 L-154.60357 -260.67372 L-156.0002 -258.25469 L-154.60357 -255.83566 L-151.81032 -255.83566 L-150.41369 -258.25469 Z "  fill="#448970" fill-rule="evenodd" stroke="#E1E1E1" fill-opacity="1" stroke-opacity="1"  stroke-width="1" stroke-linecap="round" stroke-linejoin="round" stroke-miterlimit="10" />
</g>
</g>
</g>
</svg>
